<mxfile host="65bd71144e">
    <diagram name="ページ1" id="be8GhK4w83dCmfsiPk0o">
        <mxGraphModel dx="2194" dy="767" grid="1" gridSize="10" guides="1" tooltips="1" connect="1" arrows="1" fold="1" page="1" pageScale="1" pageWidth="1169" pageHeight="827" math="0" shadow="0">
            <root>
                <mxCell id="0"/>
                <mxCell id="1" parent="0"/>
                <mxCell id="bD1b70EAPUTdLCyVFp36-1" value="乗り物" style="rounded=0;whiteSpace=wrap;html=1;" parent="1" vertex="1">
                    <mxGeometry x="210" y="130" width="120" height="60" as="geometry"/>
                </mxCell>
                <mxCell id="bD1b70EAPUTdLCyVFp36-2" value="車" style="rounded=0;whiteSpace=wrap;html=1;" parent="1" vertex="1">
                    <mxGeometry x="40" y="250" width="120" height="60" as="geometry"/>
                </mxCell>
                <mxCell id="bD1b70EAPUTdLCyVFp36-3" value="船" style="rounded=0;whiteSpace=wrap;html=1;" parent="1" vertex="1">
                    <mxGeometry x="210" y="250" width="120" height="60" as="geometry"/>
                </mxCell>
                <mxCell id="bD1b70EAPUTdLCyVFp36-4" value="飛行機" style="rounded=0;whiteSpace=wrap;html=1;" parent="1" vertex="1">
                    <mxGeometry x="390" y="250" width="120" height="60" as="geometry"/>
                </mxCell>
                <mxCell id="bD1b70EAPUTdLCyVFp36-5" value="" style="endArrow=block;endFill=0;endSize=12;html=1;rounded=0;exitX=0.5;exitY=0;exitDx=0;exitDy=0;entryX=0.25;entryY=1;entryDx=0;entryDy=0;" parent="1" source="bD1b70EAPUTdLCyVFp36-2" target="bD1b70EAPUTdLCyVFp36-1" edge="1">
                    <mxGeometry width="160" relative="1" as="geometry">
                        <mxPoint x="210" y="390" as="sourcePoint"/>
                        <mxPoint x="370" y="390" as="targetPoint"/>
                    </mxGeometry>
                </mxCell>
                <mxCell id="bD1b70EAPUTdLCyVFp36-6" value="" style="endArrow=block;endFill=0;endSize=12;html=1;rounded=0;exitX=0.5;exitY=0;exitDx=0;exitDy=0;entryX=0.5;entryY=1;entryDx=0;entryDy=0;" parent="1" source="bD1b70EAPUTdLCyVFp36-3" target="bD1b70EAPUTdLCyVFp36-1" edge="1">
                    <mxGeometry width="160" relative="1" as="geometry">
                        <mxPoint x="260" y="420" as="sourcePoint"/>
                        <mxPoint x="410" y="360" as="targetPoint"/>
                    </mxGeometry>
                </mxCell>
                <mxCell id="bD1b70EAPUTdLCyVFp36-7" value="" style="endArrow=block;endFill=0;endSize=12;html=1;rounded=0;exitX=0.5;exitY=0;exitDx=0;exitDy=0;entryX=0.75;entryY=1;entryDx=0;entryDy=0;" parent="1" source="bD1b70EAPUTdLCyVFp36-4" target="bD1b70EAPUTdLCyVFp36-1" edge="1">
                    <mxGeometry width="160" relative="1" as="geometry">
                        <mxPoint x="320" y="420" as="sourcePoint"/>
                        <mxPoint x="470" y="360" as="targetPoint"/>
                    </mxGeometry>
                </mxCell>
                <mxCell id="bD1b70EAPUTdLCyVFp36-8" value="&lt;font style=&quot;font-size: 20px;&quot;&gt;&lt;b&gt;ドメインモデル&lt;/b&gt;&lt;/font&gt;" style="text;html=1;align=center;verticalAlign=middle;resizable=0;points=[];autosize=1;strokeColor=#36393d;fillColor=#cce5ff;" parent="1" vertex="1">
                    <mxGeometry x="5" y="25" width="160" height="40" as="geometry"/>
                </mxCell>
                <mxCell id="bD1b70EAPUTdLCyVFp36-9" value="汎化:&lt;div&gt;is a 関係&lt;/div&gt;" style="text;html=1;align=center;verticalAlign=middle;resizable=0;points=[];autosize=1;strokeColor=#6c8ebf;fillColor=#dae8fc;" parent="1" vertex="1">
                    <mxGeometry x="30" y="105" width="70" height="40" as="geometry"/>
                </mxCell>
                <mxCell id="bD1b70EAPUTdLCyVFp36-10" value="車" style="rounded=0;whiteSpace=wrap;html=1;" parent="1" vertex="1">
                    <mxGeometry x="750" y="130" width="120" height="60" as="geometry"/>
                </mxCell>
                <mxCell id="bD1b70EAPUTdLCyVFp36-11" value="エンジン" style="rounded=0;whiteSpace=wrap;html=1;" parent="1" vertex="1">
                    <mxGeometry x="630" y="250" width="120" height="60" as="geometry"/>
                </mxCell>
                <mxCell id="bD1b70EAPUTdLCyVFp36-12" value="ボディ" style="rounded=0;whiteSpace=wrap;html=1;" parent="1" vertex="1">
                    <mxGeometry x="870" y="250" width="120" height="60" as="geometry"/>
                </mxCell>
                <mxCell id="bD1b70EAPUTdLCyVFp36-13" value="ハンドル" style="rounded=0;whiteSpace=wrap;html=1;" parent="1" vertex="1">
                    <mxGeometry x="800" y="370" width="120" height="60" as="geometry"/>
                </mxCell>
                <mxCell id="bD1b70EAPUTdLCyVFp36-14" value="ライト" style="rounded=0;whiteSpace=wrap;html=1;" parent="1" vertex="1">
                    <mxGeometry x="960" y="370" width="120" height="60" as="geometry"/>
                </mxCell>
                <mxCell id="bD1b70EAPUTdLCyVFp36-15" value="" style="endArrow=diamondThin;html=1;rounded=0;entryX=0.25;entryY=1;entryDx=0;entryDy=0;exitX=0.5;exitY=0;exitDx=0;exitDy=0;endFill=0;endSize=15;" parent="1" source="bD1b70EAPUTdLCyVFp36-11" target="bD1b70EAPUTdLCyVFp36-10" edge="1">
                    <mxGeometry width="50" height="50" relative="1" as="geometry">
                        <mxPoint x="520" y="400" as="sourcePoint"/>
                        <mxPoint x="570" y="350" as="targetPoint"/>
                    </mxGeometry>
                </mxCell>
                <mxCell id="bD1b70EAPUTdLCyVFp36-16" value="" style="endArrow=diamondThin;html=1;rounded=0;entryX=0.75;entryY=1;entryDx=0;entryDy=0;exitX=0.5;exitY=0;exitDx=0;exitDy=0;endFill=0;endSize=15;" parent="1" source="bD1b70EAPUTdLCyVFp36-12" target="bD1b70EAPUTdLCyVFp36-10" edge="1">
                    <mxGeometry width="50" height="50" relative="1" as="geometry">
                        <mxPoint x="900" y="270" as="sourcePoint"/>
                        <mxPoint x="990" y="210" as="targetPoint"/>
                    </mxGeometry>
                </mxCell>
                <mxCell id="bD1b70EAPUTdLCyVFp36-17" value="" style="endArrow=diamondThin;html=1;rounded=0;endFill=0;exitX=0.5;exitY=0;exitDx=0;exitDy=0;endSize=15;" parent="1" source="bD1b70EAPUTdLCyVFp36-13" edge="1">
                    <mxGeometry width="50" height="50" relative="1" as="geometry">
                        <mxPoint x="860" y="370" as="sourcePoint"/>
                        <mxPoint x="900" y="310" as="targetPoint"/>
                    </mxGeometry>
                </mxCell>
                <mxCell id="bD1b70EAPUTdLCyVFp36-18" value="" style="endArrow=diamondThin;html=1;rounded=0;entryX=0.75;entryY=1;entryDx=0;entryDy=0;exitX=0.5;exitY=0;exitDx=0;exitDy=0;endFill=0;endSize=15;" parent="1" source="bD1b70EAPUTdLCyVFp36-14" target="bD1b70EAPUTdLCyVFp36-12" edge="1">
                    <mxGeometry width="50" height="50" relative="1" as="geometry">
                        <mxPoint x="960" y="570" as="sourcePoint"/>
                        <mxPoint x="1050" y="510" as="targetPoint"/>
                    </mxGeometry>
                </mxCell>
                <mxCell id="bD1b70EAPUTdLCyVFp36-19" value="集約:&lt;div&gt;&lt;span style=&quot;background-color: transparent; color: light-dark(rgb(0, 0, 0), rgb(255, 255, 255));&quot;&gt;has a 関係&lt;/span&gt;&lt;/div&gt;" style="text;html=1;align=center;verticalAlign=middle;resizable=0;points=[];autosize=1;strokeColor=#6c8ebf;fillColor=#dae8fc;" parent="1" vertex="1">
                    <mxGeometry x="630" y="105" width="80" height="40" as="geometry"/>
                </mxCell>
                <mxCell id="2" value="利用者" style="rounded=0;whiteSpace=wrap;html=1;" vertex="1" parent="1">
                    <mxGeometry x="615" y="637" width="120" height="60" as="geometry"/>
                </mxCell>
                <mxCell id="3" value="図書カード" style="rounded=0;whiteSpace=wrap;html=1;" vertex="1" parent="1">
                    <mxGeometry x="615" y="767" width="120" height="65" as="geometry"/>
                </mxCell>
                <mxCell id="4" value="" style="endArrow=diamondThin;endFill=0;endSize=24;html=1;exitX=0.5;exitY=0;exitDx=0;exitDy=0;entryX=0.5;entryY=1;entryDx=0;entryDy=0;" edge="1" parent="1" source="3" target="2">
                    <mxGeometry width="160" relative="1" as="geometry">
                        <mxPoint x="685" y="737" as="sourcePoint"/>
                        <mxPoint x="1015" y="807" as="targetPoint"/>
                    </mxGeometry>
                </mxCell>
                <mxCell id="6" value="IDナンバー" style="rounded=0;whiteSpace=wrap;html=1;" vertex="1" parent="1">
                    <mxGeometry x="330" y="1142" width="120" height="60" as="geometry"/>
                </mxCell>
                <mxCell id="7" value="パスワード" style="rounded=0;whiteSpace=wrap;html=1;" vertex="1" parent="1">
                    <mxGeometry x="940" y="1142" width="120" height="60" as="geometry"/>
                </mxCell>
                <mxCell id="8" value="" style="endArrow=diamondThin;endFill=0;endSize=12;html=1;exitX=0.5;exitY=0;exitDx=0;exitDy=0;entryX=0.098;entryY=0.965;entryDx=0;entryDy=0;entryPerimeter=0;" edge="1" parent="1" source="6" target="3">
                    <mxGeometry width="160" relative="1" as="geometry">
                        <mxPoint x="594.5" y="897" as="sourcePoint"/>
                        <mxPoint x="594.5" y="817" as="targetPoint"/>
                    </mxGeometry>
                </mxCell>
                <mxCell id="13" value="" style="endArrow=diamondThin;endFill=0;endSize=12;html=1;exitX=0.5;exitY=0;exitDx=0;exitDy=0;entryX=0.946;entryY=1.01;entryDx=0;entryDy=0;entryPerimeter=0;" edge="1" parent="1" source="7" target="3">
                    <mxGeometry width="160" relative="1" as="geometry">
                        <mxPoint x="845" y="817" as="sourcePoint"/>
                        <mxPoint x="1005" y="817" as="targetPoint"/>
                    </mxGeometry>
                </mxCell>
                <mxCell id="14" value="貸し出し予約" style="whiteSpace=wrap;html=1;" vertex="1" parent="1">
                    <mxGeometry x="985" y="637" width="120" height="60" as="geometry"/>
                </mxCell>
                <mxCell id="15" value="" style="endArrow=none;endFill=0;endSize=17;html=1;entryX=1;entryY=0.5;entryDx=0;entryDy=0;exitX=0;exitY=0.5;exitDx=0;exitDy=0;" edge="1" parent="1" source="14" target="2">
                    <mxGeometry width="160" relative="1" as="geometry">
                        <mxPoint x="845" y="817" as="sourcePoint"/>
                        <mxPoint x="1005" y="817" as="targetPoint"/>
                    </mxGeometry>
                </mxCell>
                <mxCell id="16" value="図書" style="whiteSpace=wrap;html=1;" vertex="1" parent="1">
                    <mxGeometry x="225" y="637" width="120" height="60" as="geometry"/>
                </mxCell>
                <mxCell id="19" value="" style="endArrow=none;endFill=0;endSize=17;html=1;entryX=0;entryY=0.5;entryDx=0;entryDy=0;exitX=1;exitY=0.5;exitDx=0;exitDy=0;" edge="1" parent="1" source="16" target="2">
                    <mxGeometry width="160" relative="1" as="geometry">
                        <mxPoint x="915" y="777" as="sourcePoint"/>
                        <mxPoint x="715" y="707" as="targetPoint"/>
                    </mxGeometry>
                </mxCell>
                <mxCell id="23" value="著者名" style="whiteSpace=wrap;html=1;" vertex="1" parent="1">
                    <mxGeometry x="240" y="802" width="120" height="60" as="geometry"/>
                </mxCell>
                <mxCell id="27" value="" style="edgeStyle=none;html=1;exitX=0.5;exitY=0;exitDx=0;exitDy=0;endArrow=diamondThin;endFill=0;endSize=24;" edge="1" parent="1" source="24">
                    <mxGeometry relative="1" as="geometry">
                        <mxPoint x="515" y="972" as="sourcePoint"/>
                        <mxPoint x="315" y="697" as="targetPoint"/>
                    </mxGeometry>
                </mxCell>
                <mxCell id="24" value="書名" style="whiteSpace=wrap;html=1;" vertex="1" parent="1">
                    <mxGeometry x="360" y="802" width="120" height="60" as="geometry"/>
                </mxCell>
                <mxCell id="25" value="" style="endArrow=diamondThin;endFill=0;endSize=24;html=1;entryX=0.643;entryY=1.008;entryDx=0;entryDy=0;entryPerimeter=0;exitX=0.5;exitY=0;exitDx=0;exitDy=0;" edge="1" parent="1" source="23" target="16">
                    <mxGeometry width="160" relative="1" as="geometry">
                        <mxPoint x="305" y="792" as="sourcePoint"/>
                        <mxPoint x="280" y="697" as="targetPoint"/>
                    </mxGeometry>
                </mxCell>
                <mxCell id="31" value="氏名" style="whiteSpace=wrap;html=1;" vertex="1" parent="1">
                    <mxGeometry x="450" y="1142" width="120" height="60" as="geometry"/>
                </mxCell>
                <mxCell id="32" value="住所" style="whiteSpace=wrap;html=1;" vertex="1" parent="1">
                    <mxGeometry x="570" y="1142" width="120" height="60" as="geometry"/>
                </mxCell>
                <mxCell id="34" value="電話番号" style="whiteSpace=wrap;html=1;" vertex="1" parent="1">
                    <mxGeometry x="690" y="1142" width="120" height="60" as="geometry"/>
                </mxCell>
                <mxCell id="35" value="電子メール・アドレス" style="whiteSpace=wrap;html=1;" vertex="1" parent="1">
                    <mxGeometry x="810" y="1142" width="130" height="60" as="geometry"/>
                </mxCell>
                <mxCell id="39" value="" style="endArrow=diamondThin;endFill=0;endSize=12;html=1;exitX=0.5;exitY=0;exitDx=0;exitDy=0;entryX=0.348;entryY=0.968;entryDx=0;entryDy=0;entryPerimeter=0;" edge="1" parent="1" source="31" target="3">
                    <mxGeometry width="160" relative="1" as="geometry">
                        <mxPoint x="905" y="847" as="sourcePoint"/>
                        <mxPoint x="1093.2399999999998" y="930.3000000000002" as="targetPoint"/>
                    </mxGeometry>
                </mxCell>
                <mxCell id="41" value="" style="endArrow=diamondThin;endFill=0;endSize=12;html=1;exitX=0.5;exitY=0;exitDx=0;exitDy=0;" edge="1" parent="1" source="32" target="3">
                    <mxGeometry width="160" relative="1" as="geometry">
                        <mxPoint x="900" y="997" as="sourcePoint"/>
                        <mxPoint x="675" y="822" as="targetPoint"/>
                    </mxGeometry>
                </mxCell>
                <mxCell id="42" value="" style="endArrow=diamondThin;endFill=0;endSize=12;html=1;exitX=0.5;exitY=0;exitDx=0;exitDy=0;entryX=0.593;entryY=0.987;entryDx=0;entryDy=0;entryPerimeter=0;" edge="1" parent="1" source="34" target="3">
                    <mxGeometry width="160" relative="1" as="geometry">
                        <mxPoint x="910" y="1007" as="sourcePoint"/>
                        <mxPoint x="1149.88" y="926.46" as="targetPoint"/>
                    </mxGeometry>
                </mxCell>
                <mxCell id="43" value="" style="endArrow=diamondThin;endFill=0;endSize=12;html=1;exitX=0.5;exitY=0;exitDx=0;exitDy=0;entryX=0.75;entryY=1;entryDx=0;entryDy=0;" edge="1" parent="1" source="35" target="3">
                    <mxGeometry width="160" relative="1" as="geometry">
                        <mxPoint x="920" y="1017" as="sourcePoint"/>
                        <mxPoint x="705" y="832" as="targetPoint"/>
                    </mxGeometry>
                </mxCell>
                <mxCell id="46" value="図書貸し出しシステム" style="text;html=1;align=center;verticalAlign=middle;resizable=0;points=[];autosize=1;strokeColor=#6c8ebf;fillColor=#dae8fc;" vertex="1" parent="1">
                    <mxGeometry x="-5" y="600" width="140" height="30" as="geometry"/>
                </mxCell>
                <mxCell id="47" value="貸し出し期限" style="whiteSpace=wrap;html=1;" vertex="1" parent="1">
                    <mxGeometry x="1195" y="982" width="120" height="60" as="geometry"/>
                </mxCell>
                <mxCell id="49" value="検索" style="text;html=1;align=center;verticalAlign=middle;resizable=0;points=[];autosize=1;strokeColor=none;fillColor=none;" vertex="1" parent="1">
                    <mxGeometry x="460" y="640" width="50" height="30" as="geometry"/>
                </mxCell>
                <mxCell id="50" value="貸し出し中か否か" style="whiteSpace=wrap;html=1;" vertex="1" parent="1">
                    <mxGeometry x="120" y="802" width="120" height="60" as="geometry"/>
                </mxCell>
                <mxCell id="52" value="" style="endArrow=diamondThin;startArrow=none;endFill=0;startFill=0;endSize=24;html=1;exitX=0.5;exitY=0;exitDx=0;exitDy=0;" edge="1" parent="1" source="50">
                    <mxGeometry width="160" relative="1" as="geometry">
                        <mxPoint x="315" y="1042" as="sourcePoint"/>
                        <mxPoint x="260" y="700" as="targetPoint"/>
                    </mxGeometry>
                </mxCell>
                <mxCell id="53" value="どこの棚にあるか" style="whiteSpace=wrap;html=1;" vertex="1" parent="1">
                    <mxGeometry y="802" width="120" height="60" as="geometry"/>
                </mxCell>
                <mxCell id="54" value="" style="endArrow=diamondThin;startArrow=none;endFill=0;startFill=0;endSize=24;html=1;exitX=0.5;exitY=0;exitDx=0;exitDy=0;entryX=0.116;entryY=1.083;entryDx=0;entryDy=0;entryPerimeter=0;" edge="1" parent="1" source="53" target="16">
                    <mxGeometry width="160" relative="1" as="geometry">
                        <mxPoint x="25" y="942" as="sourcePoint"/>
                        <mxPoint x="245" y="752" as="targetPoint"/>
                    </mxGeometry>
                </mxCell>
                <mxCell id="55" value="借りている本" style="whiteSpace=wrap;html=1;" vertex="1" parent="1">
                    <mxGeometry x="1095" y="842" width="120" height="60" as="geometry"/>
                </mxCell>
                <mxCell id="59" value="" style="endArrow=diamondThin;endFill=0;endSize=24;html=1;entryX=1;entryY=0.5;entryDx=0;entryDy=0;exitX=0;exitY=0.5;exitDx=0;exitDy=0;" edge="1" parent="1" source="55" target="3">
                    <mxGeometry width="160" relative="1" as="geometry">
                        <mxPoint x="855" y="1052" as="sourcePoint"/>
                        <mxPoint x="1015" y="1052" as="targetPoint"/>
                    </mxGeometry>
                </mxCell>
                <mxCell id="60" value="" style="endArrow=diamondThin;endFill=0;endSize=24;html=1;entryX=0.25;entryY=1;entryDx=0;entryDy=0;exitX=0.5;exitY=0;exitDx=0;exitDy=0;" edge="1" parent="1" source="61" target="55">
                    <mxGeometry width="160" relative="1" as="geometry">
                        <mxPoint x="1135" y="1042" as="sourcePoint"/>
                        <mxPoint x="1155" y="902" as="targetPoint"/>
                    </mxGeometry>
                </mxCell>
                <mxCell id="61" value="著者" style="whiteSpace=wrap;html=1;" vertex="1" parent="1">
                    <mxGeometry x="1045" y="982" width="120" height="60" as="geometry"/>
                </mxCell>
                <mxCell id="63" value="貸し出し期限" style="whiteSpace=wrap;html=1;" vertex="1" parent="1">
                    <mxGeometry x="1345" y="982" width="120" height="60" as="geometry"/>
                </mxCell>
                <mxCell id="64" value="" style="endArrow=diamondThin;endFill=0;endSize=24;html=1;entryX=0.5;entryY=1;entryDx=0;entryDy=0;exitX=0.5;exitY=0;exitDx=0;exitDy=0;" edge="1" parent="1" source="47" target="55">
                    <mxGeometry width="160" relative="1" as="geometry">
                        <mxPoint x="1125" y="992" as="sourcePoint"/>
                        <mxPoint x="1135" y="912" as="targetPoint"/>
                    </mxGeometry>
                </mxCell>
                <mxCell id="65" value="" style="endArrow=diamondThin;endFill=0;endSize=24;html=1;entryX=0.75;entryY=1;entryDx=0;entryDy=0;exitX=0.5;exitY=0;exitDx=0;exitDy=0;" edge="1" parent="1" source="63" target="55">
                    <mxGeometry width="160" relative="1" as="geometry">
                        <mxPoint x="1135" y="1002" as="sourcePoint"/>
                        <mxPoint x="1145" y="922" as="targetPoint"/>
                    </mxGeometry>
                </mxCell>
                <mxCell id="67" value="必要事項" style="whiteSpace=wrap;html=1;" vertex="1" parent="1">
                    <mxGeometry x="1155" y="712" width="120" height="60" as="geometry"/>
                </mxCell>
                <mxCell id="68" value="" style="endArrow=diamondThin;endFill=0;endSize=24;html=1;entryX=1;entryY=0.5;entryDx=0;entryDy=0;exitX=0.5;exitY=0;exitDx=0;exitDy=0;" edge="1" parent="1" source="67" target="14">
                    <mxGeometry width="160" relative="1" as="geometry">
                        <mxPoint x="765" y="982" as="sourcePoint"/>
                        <mxPoint x="925" y="982" as="targetPoint"/>
                    </mxGeometry>
                </mxCell>
            </root>
        </mxGraphModel>
    </diagram>
</mxfile>